<svg xmlns="http://www.w3.org/2000/svg" width="140" height="41" viewBox="0 0 140 41">
    <g fill="none" fill-rule="evenodd" transform="translate(-5 -5)">
        <rect width="35" height="35" x="8" y="8" fill="#48BC48" rx="12" transform="rotate(45 25.5 25.5)"/>
        <path fill="#FFF" d="M33 33h-3.611v-7.337h-6.766V33H19V16h3.623v6.663h6.766V16H33z"/>
        <path fill="#48BC48" d="M68.157 32.693h-3.593v-7.425c0-1.835-.707-2.752-2.12-2.752-1.006 0-1.732.33-2.18.99-.447.659-.671 1.728-.671 3.206v5.981H56V15h3.593v3.605c0 .28-.028.94-.083 1.978l-.082 1.023h.188c.801-1.243 2.074-1.864 3.817-1.864 1.547 0 2.721.401 3.522 1.205.801.803 1.202 1.956 1.202 3.457v8.289zm6.59-6.379c0 1.258.214 2.21.642 2.854.428.644 1.125.967 2.091.967.958 0 1.647-.32 2.068-.961.42-.64.63-1.594.63-2.86 0-1.258-.212-2.202-.636-2.831-.424-.63-1.12-.944-2.085-.944-.958 0-1.65.313-2.074.938-.424.625-.636 1.571-.636 2.837zm9.106 0c0 2.07-.565 3.688-1.696 4.855-1.131 1.168-2.706 1.751-4.724 1.751-1.264 0-2.38-.267-3.345-.801a5.415 5.415 0 0 1-2.227-2.303c-.518-1-.777-2.168-.777-3.502 0-2.077.561-3.692 1.684-4.844 1.123-1.152 2.702-1.728 4.736-1.728 1.264 0 2.38.265 3.345.796a5.396 5.396 0 0 1 2.227 2.285c.518.993.777 2.157.777 3.491zm8.546 3.843c.628 0 1.382-.132 2.262-.398v2.581c-.895.387-1.995.58-3.299.58-1.437 0-2.483-.35-3.139-1.051-.656-.702-.984-1.753-.984-3.156v-6.129h-1.72v-1.467l1.98-1.16 1.036-2.683h2.297v2.706h3.687v2.604h-3.687v6.13c0 .492.144.856.43 1.09.287.236.666.353 1.137.353zm10.407-7.948c-.762 0-1.358.233-1.79.7-.432.466-.68 1.127-.743 1.984h5.042c-.015-.857-.247-1.518-.695-1.985-.447-.466-1.052-.699-1.814-.699zm.507 10.711c-2.12 0-3.778-.564-4.971-1.694-1.194-1.13-1.791-2.729-1.791-4.798 0-2.13.552-3.777 1.655-4.941 1.103-1.164 2.629-1.745 4.577-1.745 1.86 0 3.31.511 4.346 1.535 1.037 1.023 1.555 2.437 1.555 4.241v1.683h-8.493c.04.985.342 1.755.907 2.308.566.554 1.359.83 2.38.83.793 0 1.543-.08 2.25-.239.706-.159 1.445-.413 2.214-.761v2.683c-.628.303-1.3.529-2.014.677-.715.147-1.586.221-2.615.221zm11.915-.227h-3.593V15h3.593v17.693zm7.391 0h-3.593V15h3.593v17.693zm6.661-6.379c0 1.258.214 2.21.642 2.854.428.644 1.125.967 2.091.967.958 0 1.647-.32 2.067-.961.42-.64.63-1.594.63-2.86 0-1.258-.211-2.202-.635-2.831-.424-.63-1.12-.944-2.085-.944-.959 0-1.65.313-2.074.938-.424.625-.636 1.571-.636 2.837zm9.106 0c0 2.07-.565 3.688-1.696 4.855-1.131 1.168-2.706 1.751-4.724 1.751-1.264 0-2.38-.267-3.346-.801a5.415 5.415 0 0 1-2.226-2.303c-.518-1-.777-2.168-.777-3.502 0-2.077.561-3.692 1.684-4.844 1.123-1.152 2.702-1.728 4.736-1.728 1.264 0 2.38.265 3.345.796a5.396 5.396 0 0 1 2.227 2.285c.518.993.777 2.157.777 3.491zm2.491 4.753c0-.637.177-1.118.53-1.444.354-.326.868-.49 1.543-.49.652 0 1.157.168 1.514.501.357.334.536.811.536 1.433 0 .599-.18 1.07-.542 1.416-.361.345-.864.517-1.508.517-.66 0-1.17-.169-1.531-.506-.361-.337-.542-.813-.542-1.427z"/>
    </g>
</svg>
